<svg width="28" height="31" viewBox="0 0 28 31" fill="none" xmlns="http://www.w3.org/2000/svg">
<path d="M9.9 30C9.6 30 9.3 29.9 9.1 29.6C3.7 23.5 2.4 22.1 2.1 21.7C1.4 20.8 1 19.6 1 18.4C1 15.4 3.4 13 6.5 13C7.8 13 9 13.5 10 14.3C11 13.5 12.3 13 13.5 13C16.5 13 19 15.4 19 18.4C19 19.7 18.5 20.9 17.7 21.8L10.7 29.7C10.5 29.9 10.3 30 9.9 30ZM3.9 20.5C4.2 20.9 7.4 24.5 10 27.4L16.2 20.4C16.7 19.9 16.9 19.2 16.9 18.4C16.9 16.6 15.4 15.1 13.6 15.1C12.6 15.1 11.6 15.6 10.9 16.4C10.6 16.7 10.3 16.8 10 16.8C9.7 16.8 9.4 16.6 9.2 16.4C8.5 15.6 7.5 15.1 6.5 15.1C4.7 15.1 3.2 16.6 3.2 18.4C3.1 19.3 3.5 20 3.9 20.5C3.8 20.5 3.8 20.5 3.9 20.5Z" fill="black"/>

</svg>
