<svg width="28" height="31" viewBox="0 0 28 31" fill="none" xmlns="http://www.w3.org/2000/svg">
<path d="M9.9 30C9.6 30 9.3 29.9 9.1 29.6C3.7 23.5 2.4 22.1 2.1 21.7C1.4 20.8 1 19.6 1 18.4C1 15.4 3.4 13 6.5 13C7.8 13 9 13.5 10 14.3C11 13.5 12.3 13 13.5 13C16.5 13 19 15.4 19 18.4C19 19.7 18.5 20.9 17.7 21.8L10.7 29.7C10.5 29.9 10.3 30 9.9 30ZM3.9 20.5C4.2 20.9 7.4 24.5 10 27.4L16.2 20.4C16.7 19.9 16.9 19.2 16.9 18.4C16.9 16.6 15.4 15.1 13.6 15.1C12.6 15.1 11.6 15.6 10.9 16.4C10.6 16.7 10.3 16.8 10 16.8C9.7 16.8 9.4 16.6 9.2 16.4C8.5 15.6 7.5 15.1 6.5 15.1C4.7 15.1 3.2 16.6 3.2 18.4C3.1 19.3 3.5 20 3.9 20.5C3.8 20.5 3.8 20.5 3.9 20.5Z" fill="black"/>
<rect x="8" width="20" height="20" rx="10" fill="#7DB54F"/>
<path d="M13.1308 12.26H14.5308V7.42L14.6308 6.83L14.2308 7.3L13.1308 8.09L12.7508 7.58L14.9508 5.88H15.3108V12.26H16.6808V13H13.1308V12.26ZM21.96 7.59C21.96 7.94333 21.8933 8.30667 21.76 8.68C21.6333 9.04667 21.4633 9.41667 21.25 9.79C21.0433 10.1633 20.81 10.53 20.55 10.89C20.29 11.2433 20.03 11.58 19.77 11.9L19.28 12.33V12.37L19.92 12.26H22.1V13H18.12V12.71C18.2667 12.5567 18.4433 12.3667 18.65 12.14C18.8567 11.9133 19.07 11.6633 19.29 11.39C19.5167 11.11 19.7367 10.8167 19.95 10.51C20.17 10.1967 20.3667 9.88 20.54 9.56C20.72 9.24 20.8633 8.92333 20.97 8.61C21.0767 8.29667 21.13 8 21.13 7.72C21.13 7.39333 21.0367 7.12333 20.85 6.91C20.6633 6.69 20.38 6.58 20 6.58C19.7467 6.58 19.5 6.63333 19.26 6.74C19.02 6.84 18.8133 6.95667 18.64 7.09L18.31 6.52C18.5433 6.32 18.82 6.16333 19.14 6.05C19.46 5.93667 19.8033 5.88 20.17 5.88C20.4567 5.88 20.71 5.92333 20.93 6.01C21.15 6.09 21.3367 6.20667 21.49 6.36C21.6433 6.51333 21.76 6.69667 21.84 6.91C21.92 7.11667 21.96 7.34333 21.96 7.59Z" fill="white"/>
</svg>
